<mxfile host="app.diagrams.net" modified="2023-12-06T06:36:54.337Z" agent="Mozilla/5.0 (Windows NT 10.0; Win64; x64) AppleWebKit/537.36 (KHTML, like Gecko) Chrome/119.0.0.0 Safari/537.36" etag="WqrNaySJDFDesFC1X_9_" version="22.1.5" type="github">
  <diagram name="Page-1" id="vvwas6FbHUiItFAmYyI_">
    <mxGraphModel dx="1434" dy="750" grid="1" gridSize="10" guides="1" tooltips="1" connect="1" arrows="1" fold="1" page="1" pageScale="1" pageWidth="827" pageHeight="1169" math="0" shadow="0">
      <root>
        <mxCell id="0" />
        <mxCell id="1" parent="0" />
        <mxCell id="2" value="User" style="shape=umlLifeline;perimeter=lifelinePerimeter;whiteSpace=wrap;container=1;dropTarget=0;collapsible=0;recursiveResize=0;outlineConnect=0;portConstraint=eastwest;newEdgeStyle={&quot;edgeStyle&quot;:&quot;elbowEdgeStyle&quot;,&quot;elbow&quot;:&quot;vertical&quot;,&quot;curved&quot;:0,&quot;rounded&quot;:0};size=65;rounded=1;labelBackgroundColor=none;fillColor=#e1d5e7;strokeColor=#9673a6;" parent="1" vertex="1">
          <mxGeometry width="150" height="786" as="geometry" />
        </mxCell>
        <mxCell id="3" value="Website" style="shape=umlLifeline;perimeter=lifelinePerimeter;whiteSpace=wrap;container=1;dropTarget=0;collapsible=0;recursiveResize=0;outlineConnect=0;portConstraint=eastwest;newEdgeStyle={&quot;edgeStyle&quot;:&quot;elbowEdgeStyle&quot;,&quot;elbow&quot;:&quot;vertical&quot;,&quot;curved&quot;:0,&quot;rounded&quot;:0};size=65;rounded=1;labelBackgroundColor=none;fillColor=#e1d5e7;strokeColor=#9673a6;" parent="1" vertex="1">
          <mxGeometry x="358" width="150" height="786" as="geometry" />
        </mxCell>
        <mxCell id="4" value="Database" style="shape=umlLifeline;perimeter=lifelinePerimeter;whiteSpace=wrap;container=1;dropTarget=0;collapsible=0;recursiveResize=0;outlineConnect=0;portConstraint=eastwest;newEdgeStyle={&quot;edgeStyle&quot;:&quot;elbowEdgeStyle&quot;,&quot;elbow&quot;:&quot;vertical&quot;,&quot;curved&quot;:0,&quot;rounded&quot;:0};size=65;rounded=1;labelBackgroundColor=none;fillColor=#e1d5e7;strokeColor=#9673a6;" parent="1" vertex="1">
          <mxGeometry x="673" width="150" height="786" as="geometry" />
        </mxCell>
        <mxCell id="5" value="loop" style="shape=umlFrame;dashed=1;pointerEvents=0;dropTarget=0;strokeColor=#9673a6;height=20;width=40;rounded=1;labelBackgroundColor=none;fillColor=#e1d5e7;" parent="1" vertex="1">
          <mxGeometry x="65" y="427" width="693" height="202" as="geometry" />
        </mxCell>
        <mxCell id="6" value="[Optional steps]" style="text;strokeColor=#9673a6;fillColor=#e1d5e7;align=center;verticalAlign=middle;whiteSpace=wrap;rounded=1;labelBackgroundColor=none;" parent="5" vertex="1">
          <mxGeometry x="40" width="653" height="20" as="geometry" />
        </mxCell>
        <mxCell id="7" value="alt" style="shape=umlFrame;dashed=1;pointerEvents=0;dropTarget=0;strokeColor=#9673a6;height=20;width=30;rounded=1;labelBackgroundColor=none;fillColor=#e1d5e7;" parent="1" vertex="1">
          <mxGeometry x="55" y="179" width="713" height="460" as="geometry" />
        </mxCell>
        <mxCell id="8" value="[Email already registered]" style="text;strokeColor=#9673a6;fillColor=#e1d5e7;align=center;verticalAlign=middle;whiteSpace=wrap;rounded=1;labelBackgroundColor=none;" parent="7" vertex="1">
          <mxGeometry x="30" width="683" height="20" as="geometry" />
        </mxCell>
        <mxCell id="9" value="[Email not registered]" style="shape=line;dashed=1;whiteSpace=wrap;verticalAlign=top;labelPosition=center;verticalLabelPosition=middle;align=center;strokeColor=#9673a6;rounded=1;labelBackgroundColor=none;fillColor=#e1d5e7;" parent="7" vertex="1">
          <mxGeometry y="103" width="713" height="4" as="geometry" />
        </mxCell>
        <mxCell id="10" value="Request to create an account" style="verticalAlign=bottom;endArrow=block;edgeStyle=elbowEdgeStyle;elbow=vertical;curved=0;rounded=1;labelBackgroundColor=none;strokeColor=#9673a6;fontColor=default;fillColor=#e1d5e7;" parent="1" source="2" target="3" edge="1">
          <mxGeometry relative="1" as="geometry">
            <Array as="points">
              <mxPoint x="264" y="107" />
            </Array>
          </mxGeometry>
        </mxCell>
        <mxCell id="11" value="Check if email is already registered" style="verticalAlign=bottom;endArrow=block;edgeStyle=elbowEdgeStyle;elbow=vertical;curved=0;rounded=1;labelBackgroundColor=none;strokeColor=#9673a6;fontColor=default;fillColor=#e1d5e7;" parent="1" source="3" target="4" edge="1">
          <mxGeometry relative="1" as="geometry">
            <Array as="points">
              <mxPoint x="601" y="159" />
            </Array>
          </mxGeometry>
        </mxCell>
        <mxCell id="12" value="Return error message" style="verticalAlign=bottom;endArrow=block;edgeStyle=elbowEdgeStyle;elbow=vertical;curved=0;rounded=1;labelBackgroundColor=none;strokeColor=#9673a6;fontColor=default;fillColor=#e1d5e7;" parent="1" source="4" target="3" edge="1">
          <mxGeometry relative="1" as="geometry">
            <Array as="points">
              <mxPoint x="601" y="257" />
            </Array>
          </mxGeometry>
        </mxCell>
        <mxCell id="13" value="Save new user details" style="verticalAlign=bottom;endArrow=block;edgeStyle=elbowEdgeStyle;elbow=vertical;curved=0;rounded=1;labelBackgroundColor=none;strokeColor=#9673a6;fontColor=default;fillColor=#e1d5e7;" parent="1" source="3" target="4" edge="1">
          <mxGeometry relative="1" as="geometry">
            <Array as="points">
              <mxPoint x="601" y="355" />
            </Array>
          </mxGeometry>
        </mxCell>
        <mxCell id="14" value="Return success message" style="verticalAlign=bottom;endArrow=block;edgeStyle=elbowEdgeStyle;elbow=vertical;curved=0;rounded=1;labelBackgroundColor=none;strokeColor=#9673a6;fontColor=default;fillColor=#e1d5e7;" parent="1" source="4" target="3" edge="1">
          <mxGeometry relative="1" as="geometry">
            <Array as="points">
              <mxPoint x="601" y="407" />
            </Array>
          </mxGeometry>
        </mxCell>
        <mxCell id="15" value="Provide additional information (optional)" style="verticalAlign=bottom;endArrow=block;edgeStyle=elbowEdgeStyle;elbow=vertical;curved=0;rounded=1;labelBackgroundColor=none;strokeColor=#9673a6;fontColor=default;fillColor=#e1d5e7;" parent="1" source="2" target="3" edge="1">
          <mxGeometry relative="1" as="geometry">
            <Array as="points">
              <mxPoint x="264" y="505" />
            </Array>
          </mxGeometry>
        </mxCell>
        <mxCell id="16" value="Save additional information" style="verticalAlign=bottom;endArrow=block;edgeStyle=elbowEdgeStyle;elbow=vertical;curved=0;rounded=1;labelBackgroundColor=none;strokeColor=#9673a6;fontColor=default;fillColor=#e1d5e7;" parent="1" source="3" target="4" edge="1">
          <mxGeometry relative="1" as="geometry">
            <Array as="points">
              <mxPoint x="601" y="557" />
            </Array>
          </mxGeometry>
        </mxCell>
        <mxCell id="17" value="Return success message" style="verticalAlign=bottom;endArrow=block;edgeStyle=elbowEdgeStyle;elbow=vertical;curved=0;rounded=1;labelBackgroundColor=none;strokeColor=#9673a6;fontColor=default;fillColor=#e1d5e7;" parent="1" source="4" target="3" edge="1">
          <mxGeometry relative="1" as="geometry">
            <Array as="points">
              <mxPoint x="601" y="609" />
            </Array>
          </mxGeometry>
        </mxCell>
        <mxCell id="18" value="Display confirmation message" style="verticalAlign=bottom;endArrow=block;edgeStyle=elbowEdgeStyle;elbow=vertical;curved=0;rounded=1;labelBackgroundColor=none;strokeColor=#9673a6;fontColor=default;fillColor=#e1d5e7;" parent="1" source="3" target="2" edge="1">
          <mxGeometry relative="1" as="geometry">
            <Array as="points">
              <mxPoint x="264" y="681" />
            </Array>
          </mxGeometry>
        </mxCell>
      </root>
    </mxGraphModel>
  </diagram>
</mxfile>
